<?xml version="1.0" encoding="UTF-8" standalone="no"?>
<!DOCTYPE svg PUBLIC "-//W3C//DTD SVG 1.0//EN" "http://www.w3.org/TR/2001/REC-SVG-20010904/DTD/svg10.dtd">
<svg xmlns="http://www.w3.org/2000/svg" xmlns:xlink="http://www.w3.org/1999/xlink" fill-rule="evenodd" height="8.958333333333334in" preserveAspectRatio="none" stroke-linecap="round" viewBox="0 0 1032 644" width="14.333333333333334in">
<style type="text/css">
.brush0 { fill: rgb(255,255,255); }
.pen0 { stroke: rgb(0,0,0); stroke-width: 1; stroke-linejoin: round; }
.font0 { font-size: 11px; font-family: "MS Sans Serif"; }
.pen1 { stroke: rgb(0,0,0); stroke-width: 14; stroke-linejoin: round; }
.brush1 { fill: none; }
.font1 { font-weight: bold; font-size: 16px; font-family: System, sans-serif; }
</style>
<g>
<line class="pen1" fill="none" x1="596" x2="724" y1="514" y2="514"/>
<line class="pen1" fill="none" x1="596" x2="724" y1="450" y2="450"/>
<line class="pen1" fill="none" x1="596" x2="724" y1="386" y2="386"/>
<line class="pen1" fill="none" x1="596" x2="724" y1="322" y2="322"/>
<line class="pen1" fill="none" x1="596" x2="724" y1="258" y2="258"/>
<line class="pen1" fill="none" x1="820" x2="756" y1="322" y2="386"/>
<line class="pen1" fill="none" x1="756" x2="820" y1="386" y2="450"/>
<line class="pen1" fill="none" x1="948" x2="884" y1="258" y2="322"/>
<line class="pen1" fill="none" x1="948" x2="1012" y1="258" y2="322"/>
<line class="pen1" fill="none" x1="948" x2="948" y1="258" y2="514"/>
<line class="pen1" fill="none" x1="276" x2="340" y1="514" y2="386"/>
<line class="pen1" fill="none" x1="340" x2="404" y1="386" y2="514"/>
<line class="pen1" fill="none" x1="404" x2="468" y1="514" y2="386"/>
<line class="pen1" fill="none" x1="468" x2="532" y1="386" y2="514"/>
<line class="pen1" fill="none" x1="276" x2="532" y1="386" y2="386"/>
<path class="pen1" d="M 275.9999845006897,258.00196841240614 A 63.5,63.5 0 1 0 275.99223327246324,384.9980921477605" fill="none"/>
<circle class="pen1" cx="83.5" cy="385.5" fill="none" r="63.5"/>
<line class="pen1" fill="none" x1="52" x2="84" y1="194" y2="130"/>
<line class="pen1" fill="none" x1="84" x2="116" y1="130" y2="194"/>
</g>
</svg>
