<?xml version="1.0" encoding="UTF-8" standalone="no"?>
<!DOCTYPE svg PUBLIC "-//W3C//DTD SVG 1.0//EN" "http://www.w3.org/TR/2001/REC-SVG-20010904/DTD/svg10.dtd">
<svg xmlns="http://www.w3.org/2000/svg" xmlns:xlink="http://www.w3.org/1999/xlink" fill-rule="evenodd" height="8.947916666666666in" preserveAspectRatio="none" stroke-linecap="round" viewBox="0 0 936 644" width="12.989583333333334in">
<style type="text/css">
.brush0 { fill: rgb(255,255,255); }
.pen0 { stroke: rgb(0,0,0); stroke-width: 1; stroke-linejoin: round; }
.font0 { font-size: 11px; font-family: "MS Sans Serif"; }
.pen1 { stroke: rgb(0,0,0); stroke-width: 14; stroke-linejoin: round; }
.brush1 { fill: none; }
.font1 { font-weight: bold; font-size: 16px; font-family: System, sans-serif; }
</style>
<g>
<circle class="pen1" cx="531.5" cy="385.5" fill="none" r="63.5"/>
<line class="pen1" fill="none" x1="468" x2="596" y1="514" y2="514"/>
<path class="pen1" d="M 534.1527171155184,384.0791139584605 A 90.0,90.0 0 0 0 400.7871599446877,383.0421472506648" fill="none"/>
<path class="pen1" d="M 532.3624043285026,385.62609077217974 A 90.0,90.0 0 0 0 658.6396103067893,384.6396103067893" fill="none"/>
<path class="pen1" d="M 787.8801192796701,257.8399498236434 A 159.5,159.5 0 0 0 788.3588107011499,513.5172023549974" fill="none"/>
<path class="pen1" d="M 851.279384069274,513.0404233461318 A 159.5,159.5 0 0 0 851.7576767602243,258.32016801110257" fill="none"/>
<circle class="pen1" cx="819.5" cy="385.5" fill="none" r="63.5"/>
<line class="pen1" fill="none" x1="212" x2="340" y1="322" y2="322"/>
<line class="pen1" fill="none" x1="340" x2="340" y1="322" y2="450"/>
<line class="pen1" fill="none" x1="340" x2="212" y1="450" y2="450"/>
<line class="pen1" fill="none" x1="212" x2="212" y1="450" y2="322"/>
<line class="pen1" fill="none" x1="212" x2="340" y1="514" y2="514"/>
<line class="pen1" fill="none" x1="276" x2="276" y1="386" y2="386"/>
<line class="pen1" fill="none" x1="20" x2="148" y1="386" y2="386"/>
<line class="pen1" fill="none" x1="244" x2="276" y1="130" y2="194"/>
<line class="pen1" fill="none" x1="276" x2="308" y1="194" y2="130"/>
</g>
</svg>
