<?xml version="1.0" encoding="UTF-8" standalone="no"?>
<!DOCTYPE svg PUBLIC "-//W3C//DTD SVG 1.0//EN" "http://www.w3.org/TR/2001/REC-SVG-20010904/DTD/svg10.dtd">
<svg xmlns="http://www.w3.org/2000/svg" xmlns:xlink="http://www.w3.org/1999/xlink" fill-rule="evenodd" height="8.947916666666666in" preserveAspectRatio="none" stroke-linecap="round" viewBox="0 0 744 644" width="10.333333333333334in">
<style type="text/css">
.brush0 { fill: rgb(255,255,255); }
.pen0 { stroke: rgb(0,0,0); stroke-width: 1; stroke-linejoin: round; }
.font0 { font-size: 11px; font-family: "MS Sans Serif"; }
.pen1 { stroke: rgb(0,0,0); stroke-width: 14; stroke-linejoin: round; }
.brush1 { fill: none; }
.font1 { font-weight: bold; font-size: 16px; font-family: System, sans-serif; }
</style>
<g>
<circle class="pen1" cx="83.5" cy="385.5" fill="none" r="63.5"/>
<line class="pen1" fill="none" x1="20" x2="148" y1="514" y2="514"/>
<path class="pen1" d="M 466.99903481845126,385.9961051938461 A 127.5,127.5 0 1 0 212.00098038084914,385.9999961553692" fill="none"/>
<line class="pen1" fill="none" x1="340" x2="404" y1="386" y2="514"/>
<line class="pen1" fill="none" x1="404" x2="276" y1="514" y2="514"/>
<line class="pen1" fill="none" x1="276" x2="340" y1="514" y2="386"/>
<line class="pen1" fill="none" x1="276" x2="404" y1="386" y2="386"/>
<path class="pen1" d="M 659.9999961553692,258.0009803808491 A 127.5,127.5 0 1 0 659.9961051938461,512.9990348184513" fill="none"/>
<path class="pen1" d="M 659.8801192796701,257.8399498236434 A 159.5,159.5 0 0 0 660.3588107011499,513.5172023549974" fill="none"/>
<line class="pen1" fill="none" x1="660" x2="724" y1="354" y2="418"/>
<line class="pen1" fill="none" x1="724" x2="660" y1="354" y2="418"/>
<line class="pen1" fill="none" x1="692" x2="692" y1="322" y2="450"/>
</g>
</svg>
