<?xml version="1.0" encoding="UTF-8" standalone="no"?>
<!DOCTYPE svg PUBLIC "-//W3C//DTD SVG 1.0//EN" "http://www.w3.org/TR/2001/REC-SVG-20010904/DTD/svg10.dtd">
<svg xmlns="http://www.w3.org/2000/svg" xmlns:xlink="http://www.w3.org/1999/xlink" fill-rule="evenodd" height="8.947916666666666in" preserveAspectRatio="none" stroke-linecap="round" viewBox="0 0 744 644" width="10.333333333333334in">
<style type="text/css">
.brush0 { fill: rgb(255,255,255); }
.pen0 { stroke: rgb(0,0,0); stroke-width: 1; stroke-linejoin: round; }
.font0 { font-size: 11px; font-family: "MS Sans Serif"; }
.pen1 { stroke: rgb(0,0,0); stroke-width: 14; stroke-linejoin: round; }
.brush1 { fill: none; }
.font1 { font-weight: bold; font-size: 16px; font-family: System, sans-serif; }
</style>
<g>
<path class="pen1" d="M 150.21592749543078,384.00738302736454 A 89.5,90.0 0 0 0 17.24966695024004,383.4878847734476" fill="none"/>
<path class="pen1" d="M 148.36240432850266,385.62609077217974 A 90.0,90.0 0 0 0 274.6396103067893,384.6396103067893" fill="none"/>
<circle class="pen1" cx="147.5" cy="385.5" fill="none" r="127.5"/>
<line class="pen1" fill="none" x1="148" x2="148" y1="258" y2="514"/>
<line class="pen1" fill="none" x1="276" x2="404" y1="386" y2="386"/>
<line class="pen1" fill="none" x1="340" x2="404" y1="322" y2="386"/>
<line class="pen1" fill="none" x1="404" x2="340" y1="386" y2="450"/>
<line class="pen1" fill="none" x1="468" x2="724" y1="258" y2="258"/>
<line class="pen1" fill="none" x1="724" x2="724" y1="258" y2="514"/>
<line class="pen1" fill="none" x1="724" x2="468" y1="514" y2="514"/>
<line class="pen1" fill="none" x1="468" x2="468" y1="514" y2="258"/>
<line class="pen1" fill="none" x1="468" x2="724" y1="258" y2="514"/>
<line class="pen1" fill="none" x1="724" x2="468" y1="258" y2="514"/>
<line class="pen1" fill="none" x1="116" x2="148" y1="194" y2="130"/>
<line class="pen1" fill="none" x1="148" x2="180" y1="130" y2="194"/>
</g>
</svg>
