<?xml version="1.0" encoding="UTF-8" standalone="no"?>
<!DOCTYPE svg PUBLIC "-//W3C//DTD SVG 1.0//EN" "http://www.w3.org/TR/2001/REC-SVG-20010904/DTD/svg10.dtd">
<svg xmlns="http://www.w3.org/2000/svg" xmlns:xlink="http://www.w3.org/1999/xlink" fill-rule="evenodd" height="8.947916666666666in" preserveAspectRatio="none" stroke-linecap="round" viewBox="0 0 1128 644" width="15.65625in">
<style type="text/css">
.brush0 { fill: rgb(255,255,255); }
.pen0 { stroke: rgb(0,0,0); stroke-width: 1; stroke-linejoin: round; }
.font0 { font-size: 11px; font-family: "MS Sans Serif"; }
.pen1 { stroke: rgb(0,0,0); stroke-width: 14; stroke-linejoin: round; }
.brush1 { fill: none; }
.font1 { font-weight: bold; font-size: 16px; font-family: System, sans-serif; }
</style>
<g>
<line class="pen1" fill="none" x1="660" x2="660" y1="258" y2="514"/>
<line class="pen1" fill="none" x1="532" x2="788" y1="386" y2="386"/>
<line class="pen1" fill="none" x1="788" x2="724" y1="386" y2="322"/>
<line class="pen1" fill="none" x1="788" x2="724" y1="386" y2="450"/>
<path class="pen1" d="M 982.1527171155184,384.0791139584605 A 90.0,90.0 0 0 0 848.7871599446877,383.0421472506648" fill="none"/>
<path class="pen1" d="M 980.3624043285026,385.62609077217974 A 90.0,90.0 0 0 0 1106.6396103067893,384.6396103067893" fill="none"/>
<line class="pen1" fill="none" x1="212" x2="212" y1="386" y2="514"/>
<line class="pen1" fill="none" x1="212" x2="468" y1="514" y2="514"/>
<line class="pen1" fill="none" x1="468" x2="468" y1="514" y2="386"/>
<path class="pen1" d="M 466.99903481845126,385.9961051938461 A 127.5,127.5 0 1 0 212.00098038084914,385.9999961553692" fill="none"/>
<line class="pen1" fill="none" x1="84" x2="84" y1="258" y2="514"/>
<line class="pen1" fill="none" x1="20" x2="148" y1="514" y2="514"/>
</g>
</svg>
