<?xml version="1.0" encoding="UTF-8" standalone="no"?>
<!DOCTYPE svg PUBLIC "-//W3C//DTD SVG 1.0//EN" "http://www.w3.org/TR/2001/REC-SVG-20010904/DTD/svg10.dtd">
<svg xmlns="http://www.w3.org/2000/svg" xmlns:xlink="http://www.w3.org/1999/xlink" fill-rule="evenodd" height="8.947916666666666in" preserveAspectRatio="none" stroke-linecap="round" viewBox="0 0 936 644" width="12.989583333333334in">
<style type="text/css">
.brush0 { fill: rgb(255,255,255); }
.pen0 { stroke: rgb(0,0,0); stroke-width: 1; stroke-linejoin: round; }
.font0 { font-size: 11px; font-family: "MS Sans Serif"; }
.pen1 { stroke: rgb(0,0,0); stroke-width: 14; stroke-linejoin: round; }
.brush1 { fill: none; }
.font1 { font-weight: bold; font-size: 16px; font-family: System, sans-serif; }
</style>
<g>
<line class="pen1" fill="none" x1="852" x2="852" y1="258" y2="514"/>
<line class="pen1" fill="none" x1="468" x2="596" y1="258" y2="258"/>
<line class="pen1" fill="none" x1="596" x2="468" y1="258" y2="514"/>
<line class="pen1" fill="none" x1="340" x2="468" y1="258" y2="258"/>
<line class="pen1" fill="none" x1="468" x2="596" y1="514" y2="514"/>
<line class="pen1" fill="none" x1="468" x2="724" y1="386" y2="386"/>
<line class="pen1" fill="none" x1="724" x2="660" y1="386" y2="322"/>
<line class="pen1" fill="none" x1="724" x2="660" y1="386" y2="450"/>
<circle class="pen1" cx="147.5" cy="385.5" fill="none" r="127.5"/>
<circle class="pen1" cx="147.5" cy="449.5" fill="none" r="63.5"/>
<line class="pen1" fill="none" x1="193" x2="102" y1="404" y2="495"/>
<line class="pen1" fill="none" x1="102" x2="193" y1="404" y2="495"/>
<path class="pen1" d="M 851.8801192796701,257.8399498236434 A 159.5,159.5 0 0 0 852.3588107011499,513.5172023549974" fill="none"/>
<path class="pen1" d="M 851.279384069274,513.0404233461318 A 159.5,159.5 0 0 0 851.7576767602243,258.32016801110257" fill="none"/>
</g>
</svg>
