<?xml version="1.0" encoding="UTF-8" standalone="no"?>
<!DOCTYPE svg PUBLIC "-//W3C//DTD SVG 1.0//EN" "http://www.w3.org/TR/2001/REC-SVG-20010904/DTD/svg10.dtd">
<svg xmlns="http://www.w3.org/2000/svg" xmlns:xlink="http://www.w3.org/1999/xlink" fill-rule="evenodd" height="8.947916666666666in" preserveAspectRatio="none" stroke-linecap="round" viewBox="0 0 936 644" width="12.989583333333334in">
<style type="text/css">
.brush0 { fill: rgb(255,255,255); }
.pen0 { stroke: rgb(0,0,0); stroke-width: 1; stroke-linejoin: round; }
.font0 { font-size: 11px; font-family: "MS Sans Serif"; }
.pen1 { stroke: rgb(0,0,0); stroke-width: 14; stroke-linejoin: round; }
.brush1 { fill: none; }
.font1 { font-weight: bold; font-size: 16px; font-family: System, sans-serif; }
</style>
<g>
<line class="pen1" fill="none" x1="20" x2="276" y1="386" y2="386"/>
<circle class="pen1" cx="83.5" cy="449.5" fill="none" r="63.5"/>
<line class="pen1" fill="none" x1="129" x2="38" y1="404" y2="495"/>
<line class="pen1" fill="none" x1="38" x2="129" y1="404" y2="495"/>
<circle class="pen1" cx="211.5" cy="449.5" fill="none" r="63.5"/>
<line class="pen1" fill="none" x1="257" x2="166" y1="404" y2="495"/>
<line class="pen1" fill="none" x1="166" x2="257" y1="404" y2="495"/>
<path class="pen1" d="M 790.1527171155184,384.0791139584605 A 90.0,90.0 0 0 0 656.7871599446877,383.0421472506648" fill="none"/>
<path class="pen1" d="M 788.3624043285026,385.62609077217974 A 90.0,90.0 0 0 0 914.6396103067893,384.6396103067893" fill="none"/>
<line class="pen1" fill="none" x1="788" x2="788" y1="258" y2="514"/>
<line class="pen1" fill="none" x1="756" x2="820" y1="482" y2="546"/>
<line class="pen1" fill="none" x1="820" x2="756" y1="482" y2="546"/>
<line class="pen1" fill="none" x1="788" x2="788" y1="514" y2="578"/>
<line class="pen1" fill="none" x1="340" x2="596" y1="386" y2="386"/>
</g>
</svg>
