<?xml version="1.0" encoding="UTF-8" standalone="no"?>
<!DOCTYPE svg PUBLIC "-//W3C//DTD SVG 1.0//EN" "http://www.w3.org/TR/2001/REC-SVG-20010904/DTD/svg10.dtd">
<svg xmlns="http://www.w3.org/2000/svg" xmlns:xlink="http://www.w3.org/1999/xlink" fill-rule="evenodd" height="8.947916666666666in" preserveAspectRatio="none" stroke-linecap="round" viewBox="0 0 936 644" width="12.989583333333334in">
<style type="text/css">
.brush0 { fill: rgb(255,255,255); }
.pen0 { stroke: rgb(0,0,0); stroke-width: 1; stroke-linejoin: round; }
.font0 { font-size: 11px; font-family: "MS Sans Serif"; }
.pen1 { stroke: rgb(0,0,0); stroke-width: 14; stroke-linejoin: round; }
.brush1 { fill: none; }
.font1 { font-weight: bold; font-size: 16px; font-family: System, sans-serif; }
</style>
<g>
<line class="pen1" fill="none" x1="20" x2="84" y1="386" y2="258"/>
<line class="pen1" fill="none" x1="84" x2="148" y1="258" y2="386"/>
<line class="pen1" fill="none" x1="20" x2="84" y1="514" y2="386"/>
<line class="pen1" fill="none" x1="84" x2="148" y1="386" y2="514"/>
<circle class="pen1" cx="339.5" cy="385.5" fill="none" r="127.5"/>
<path class="pen1" d="M 594.9962728509602,417.98455804386094 A 31.5,31.5 0 1 0 532.0039675042666,417.9999370237418" fill="none"/>
<line class="pen1" fill="none" x1="596" x2="532" y1="418" y2="514"/>
<line class="pen1" fill="none" x1="532" x2="596" y1="514" y2="514"/>
<line class="pen1" fill="none" x1="724" x2="660" y1="322" y2="386"/>
<line class="pen1" fill="none" x1="660" x2="724" y1="386" y2="450"/>
<path class="pen1" d="M 786.6396103067893,384.6396103067893 A 90.0,90.0 0 0 0 786.1365538062888,256.86127867297637" fill="none"/>
<path class="pen1" d="M 787.3603896932108,385.3603896932107 A 90.0,90.0 0 0 0 788.3624043285026,513.6260907721797" fill="none"/>
<line class="pen1" fill="none" x1="852" x2="916" y1="322" y2="386"/>
<line class="pen1" fill="none" x1="916" x2="852" y1="386" y2="450"/>
</g>
</svg>
