<?xml version="1.0" encoding="UTF-8" standalone="no"?>
<!DOCTYPE svg PUBLIC "-//W3C//DTD SVG 1.0//EN" "http://www.w3.org/TR/2001/REC-SVG-20010904/DTD/svg10.dtd">
<svg xmlns="http://www.w3.org/2000/svg" xmlns:xlink="http://www.w3.org/1999/xlink" fill-rule="evenodd" height="8.947916666666666in" preserveAspectRatio="none" stroke-linecap="round" viewBox="0 0 712 644" width="9.885416666666666in">
<style type="text/css">
.brush0 { fill: rgb(255,255,255); }
.pen0 { stroke: rgb(0,0,0); stroke-width: 1; stroke-linejoin: round; }
.font0 { font-size: 11px; font-family: "MS Sans Serif"; }
.pen1 { stroke: rgb(0,0,0); stroke-width: 14; stroke-linejoin: round; }
.brush1 { fill: none; }
.font1 { font-weight: bold; font-size: 16px; font-family: System, sans-serif; }
</style>
<g>
<line class="pen1" fill="none" x1="20" x2="84" y1="130" y2="130"/>
<line class="pen1" fill="none" x1="84" x2="84" y1="130" y2="194"/>
<line class="pen1" fill="none" x1="84" x2="20" y1="194" y2="194"/>
<line class="pen1" fill="none" x1="20" x2="20" y1="194" y2="130"/>
<line class="pen1" fill="none" x1="52" x2="52" y1="258" y2="514"/>
<line class="pen1" fill="none" x1="116" x2="116" y1="258" y2="514"/>
<line class="pen1" fill="none" x1="180" x2="308" y1="386" y2="386"/>
<line class="pen1" fill="none" x1="244" x2="244" y1="322" y2="450"/>
<line class="pen1" fill="none" x1="372" x2="372" y1="258" y2="514"/>
<line class="pen1" fill="none" x1="436" x2="436" y1="386" y2="514"/>
<line class="pen1" fill="none" x1="436" x2="692" y1="514" y2="514"/>
<line class="pen1" fill="none" x1="692" x2="692" y1="514" y2="386"/>
<line class="pen1" fill="none" x1="436" x2="692" y1="386" y2="386"/>
<path class="pen1" d="M 626.9980921477604,385.99223327246324 A 63.5,63.5 0 1 0 500.00196841240614,385.9999845006897" fill="none"/>
</g>
</svg>
