<?xml version="1.0" encoding="UTF-8" standalone="no"?>
<!DOCTYPE svg PUBLIC "-//W3C//DTD SVG 1.0//EN" "http://www.w3.org/TR/2001/REC-SVG-20010904/DTD/svg10.dtd">
<svg xmlns="http://www.w3.org/2000/svg" xmlns:xlink="http://www.w3.org/1999/xlink" fill-rule="evenodd" height="8.958333333333334in" preserveAspectRatio="none" stroke-linecap="round" viewBox="0 0 680 644" width="9.447916666666666in">
<style type="text/css">
.brush0 { fill: rgb(255,255,255); }
.pen0 { stroke: rgb(0,0,0); stroke-width: 1; stroke-linejoin: round; }
.font0 { font-size: 11px; font-family: "MS Sans Serif"; }
.pen1 { stroke: rgb(0,0,0); stroke-width: 14; stroke-linejoin: round; }
.brush1 { fill: none; }
.font1 { font-weight: bold; font-size: 16px; font-family: System, sans-serif; }
</style>
<g>
<line class="pen1" fill="none" x1="468" x2="468" y1="258" y2="514"/>
<line class="pen1" fill="none" x1="468" x2="596" y1="386" y2="386"/>
<line class="pen1" fill="none" x1="596" x2="596" y1="386" y2="514"/>
<path class="pen1" d="M 534.1527171155184,512.0791139584605 A 90.0,90.0 0 0 0 400.7871599446877,511.0421472506648" fill="none"/>
<path class="pen1" d="M 532.3624043285026,513.6260907721797 A 90.0,90.0 0 0 0 658.6396103067893,512.6396103067892" fill="none"/>
<line class="pen1" fill="none" x1="276" x2="276" y1="258" y2="514"/>
<line class="pen1" fill="none" x1="276" x2="212" y1="514" y2="450"/>
<line class="pen1" fill="none" x1="276" x2="340" y1="514" y2="450"/>
<line class="pen1" fill="none" x1="20" x2="20" y1="258" y2="514"/>
<line class="pen1" fill="none" x1="20" x2="148" y1="514" y2="386"/>
<line class="pen1" fill="none" x1="148" x2="20" y1="386" y2="258"/>
<line class="pen1" fill="none" x1="52" x2="84" y1="194" y2="130"/>
<line class="pen1" fill="none" x1="84" x2="116" y1="130" y2="194"/>
</g>
</svg>
