<?xml version="1.0" encoding="UTF-8" standalone="no"?>
<!DOCTYPE svg PUBLIC "-//W3C//DTD SVG 1.0//EN" "http://www.w3.org/TR/2001/REC-SVG-20010904/DTD/svg10.dtd">
<svg xmlns="http://www.w3.org/2000/svg" xmlns:xlink="http://www.w3.org/1999/xlink" fill-rule="evenodd" height="8.958333333333334in" preserveAspectRatio="none" stroke-linecap="round" viewBox="0 0 712 644" width="9.885416666666666in">
<style type="text/css">
.brush0 { fill: rgb(255,255,255); }
.pen0 { stroke: rgb(0,0,0); stroke-width: 1; stroke-linejoin: round; }
.font0 { font-size: 11px; font-family: "MS Sans Serif"; }
.pen1 { stroke: rgb(0,0,0); stroke-width: 14; stroke-linejoin: round; }
.brush1 { fill: none; }
.font1 { font-weight: bold; font-size: 16px; font-family: System, sans-serif; }
</style>
<g>
<circle class="pen1" cx="531.5" cy="385.5" fill="none" r="127.5"/>
<line class="pen1" fill="none" x1="532" x2="532" y1="322" y2="450"/>
<line class="pen1" fill="none" x1="468" x2="596" y1="450" y2="450"/>
<path class="pen1" d="M 467.1801948466054,193.18019484660536 A 45.0,45.0 0 0 0 468.1896042251178,257.79816324422944" fill="none"/>
<path class="pen1" d="M 595.1801948466053,193.18019484660536 A 45.0,45.0 0 0 0 596.1896042251178,257.79816324422944" fill="none"/>
<path class="pen1" d="M 531.1801948466053,193.18019484660536 A 45.0,45.0 0 0 0 532.1896042251178,257.79816324422944" fill="none"/>
<line class="pen1" fill="none" x1="692" x2="628" y1="130" y2="194"/>
<line class="pen1" fill="none" x1="628" x2="692" y1="194" y2="258"/>
<line class="pen1" fill="none" x1="276" x2="20" y1="258" y2="514"/>
<line class="pen1" fill="none" x1="276" x2="276" y1="258" y2="386"/>
<line class="pen1" fill="none" x1="212" x2="340" y1="386" y2="386"/>
<line class="pen1" fill="none" x1="340" x2="340" y1="386" y2="514"/>
<line class="pen1" fill="none" x1="340" x2="212" y1="514" y2="514"/>
<line class="pen1" fill="none" x1="212" x2="212" y1="514" y2="386"/>
</g>
</svg>
