<?xml version="1.0" encoding="UTF-8" standalone="no"?>
<!DOCTYPE svg PUBLIC "-//W3C//DTD SVG 1.0//EN" "http://www.w3.org/TR/2001/REC-SVG-20010904/DTD/svg10.dtd">
<svg xmlns="http://www.w3.org/2000/svg" xmlns:xlink="http://www.w3.org/1999/xlink" fill-rule="evenodd" height="8.958333333333334in" preserveAspectRatio="none" stroke-linecap="round" viewBox="0 0 1128 644" width="15.666666666666666in">
<style type="text/css">
.brush0 { fill: rgb(255,255,255); }
.pen0 { stroke: rgb(0,0,0); stroke-width: 1; stroke-linejoin: round; }
.font0 { font-size: 11px; font-family: "MS Sans Serif"; }
.pen1 { stroke: rgb(0,0,0); stroke-width: 14; stroke-linejoin: round; }
.brush1 { fill: none; }
.font1 { font-weight: bold; font-size: 16px; font-family: System, sans-serif; }
</style>
<g>
<path class="pen1" d="M 787.8801192796701,257.8399498236434 A 159.5,159.5 0 0 0 788.3588107011499,513.5172023549974" fill="none"/>
<line class="pen1" fill="none" x1="788" x2="1044" y1="514" y2="514"/>
<line class="pen1" fill="none" x1="788" x2="1044" y1="258" y2="258"/>
<path class="pen1" d="M 1043.279384069274,513.0404233461318 A 159.5,159.5 0 0 0 1043.7576767602243,258.32016801110257" fill="none"/>
<line class="pen1" fill="none" x1="404" x2="532" y1="386" y2="258"/>
<line class="pen1" fill="none" x1="532" x2="660" y1="258" y2="386"/>
<line class="pen1" fill="none" x1="276" x2="20" y1="258" y2="514"/>
<line class="pen1" fill="none" x1="276" x2="276" y1="258" y2="386"/>
<line class="pen1" fill="none" x1="212" x2="340" y1="386" y2="386"/>
<line class="pen1" fill="none" x1="340" x2="340" y1="386" y2="514"/>
<line class="pen1" fill="none" x1="340" x2="212" y1="514" y2="514"/>
<line class="pen1" fill="none" x1="212" x2="212" y1="514" y2="386"/>
</g>
</svg>
