<?xml version="1.0" encoding="UTF-8" standalone="no"?>
<!DOCTYPE svg PUBLIC "-//W3C//DTD SVG 1.0//EN" "http://www.w3.org/TR/2001/REC-SVG-20010904/DTD/svg10.dtd">
<svg xmlns="http://www.w3.org/2000/svg" xmlns:xlink="http://www.w3.org/1999/xlink" fill-rule="evenodd" height="8.958333333333334in" preserveAspectRatio="none" stroke-linecap="round" viewBox="0 0 872 644" width="12.114583333333334in">
<style type="text/css">
.brush0 { fill: rgb(255,255,255); }
.pen0 { stroke: rgb(0,0,0); stroke-width: 1; stroke-linejoin: round; }
.font0 { font-size: 11px; font-family: "MS Sans Serif"; }
.pen1 { stroke: rgb(0,0,0); stroke-width: 14; stroke-linejoin: round; }
.brush1 { fill: none; }
.font1 { font-weight: bold; font-size: 16px; font-family: System, sans-serif; }
</style>
<g>
<path class="pen1" d="M 212.0662428874896,321.9914736877488 A 254.5,255.5 0 0 0 340.7018619171348,512.7343935711102" fill="none"/>
<path class="pen1" d="M 338.9980921477605,321.99223327246324 A 63.5,63.5 0 1 0 212.00196841240611,321.9999845006897" fill="none"/>
<path class="pen1" d="M 466.9980921477605,321.99223327246324 A 63.5,63.5 0 1 0 340.00196841240614,321.9999845006897" fill="none"/>
<path class="pen1" d="M 339.2350856197781,512.6262137731214 A 255.0,255.5 0 0 0 467.9297612213228,321.9909772319881" fill="none"/>
<line class="pen1" fill="none" x1="52" x2="84" y1="194" y2="130"/>
<line class="pen1" fill="none" x1="84" x2="116" y1="130" y2="194"/>
<line class="pen1" fill="none" x1="596" x2="532" y1="258" y2="322"/>
<line class="pen1" fill="none" x1="596" x2="660" y1="258" y2="322"/>
<line class="pen1" fill="none" x1="596" x2="596" y1="258" y2="514"/>
<circle class="pen1" cx="787.5" cy="385.5" fill="none" r="63.5"/>
<line class="pen1" fill="none" x1="20" x2="148" y1="386" y2="514"/>
<line class="pen1" fill="none" x1="148" x2="148" y1="514" y2="258"/>
</g>
</svg>
