<?xml version="1.0" encoding="UTF-8" standalone="no"?>
<!DOCTYPE svg PUBLIC "-//W3C//DTD SVG 1.0//EN" "http://www.w3.org/TR/2001/REC-SVG-20010904/DTD/svg10.dtd">
<svg xmlns="http://www.w3.org/2000/svg" xmlns:xlink="http://www.w3.org/1999/xlink" fill-rule="evenodd" height="8.958333333333334in" preserveAspectRatio="none" stroke-linecap="round" viewBox="0 0 872 644" width="12.114583333333334in">
<style type="text/css">
.brush0 { fill: rgb(255,255,255); }
.pen0 { stroke: rgb(0,0,0); stroke-width: 1; stroke-linejoin: round; }
.font0 { font-size: 11px; font-family: "MS Sans Serif"; }
.pen1 { stroke: rgb(0,0,0); stroke-width: 14; stroke-linejoin: round; }
.brush1 { fill: none; }
.font1 { font-weight: bold; font-size: 16px; font-family: System, sans-serif; }
</style>
<g>
<path class="pen1" d="M 468.0662428874896,321.9914736877488 A 254.5,255.5 0 0 0 596.7018619171348,512.7343935711102" fill="none"/>
<path class="pen1" d="M 594.9980921477604,321.99223327246324 A 63.5,63.5 0 1 0 468.00196841240614,321.9999845006897" fill="none"/>
<path class="pen1" d="M 722.9980921477604,321.99223327246324 A 63.5,63.5 0 1 0 596.0019684124061,321.9999845006897" fill="none"/>
<path class="pen1" d="M 595.171752599735,512.5183940927529 A 255.5,255.5 0 0 0 723.9257653272348,321.99048273426087" fill="none"/>
<path class="pen1" d="M 818.6396103067893,384.6396103067893 A 90.0,90.0 0 0 0 818.1365538062888,256.86127867297637" fill="none"/>
<path class="pen1" d="M 819.3603896932108,385.3603896932107 A 90.0,90.0 0 0 0 820.3624043285026,513.6260907721797" fill="none"/>
<line class="pen1" fill="none" x1="276" x2="404" y1="386" y2="386"/>
<line class="pen1" fill="none" x1="84" x2="84" y1="386" y2="514"/>
<circle class="pen1" cx="83.5" cy="321.5" fill="none" r="63.5"/>
<path class="pen1" d="M 211.99999615536922,386.0009803808491 A 127.5,127.5 0 0 0 84.00098038084914,513.9999961553692" fill="none"/>
</g>
</svg>
