<?xml version="1.0" encoding="UTF-8" standalone="no"?>
<!DOCTYPE svg PUBLIC "-//W3C//DTD SVG 1.0//EN" "http://www.w3.org/TR/2001/REC-SVG-20010904/DTD/svg10.dtd">
<svg xmlns="http://www.w3.org/2000/svg" xmlns:xlink="http://www.w3.org/1999/xlink" fill-rule="evenodd" height="8.947916666666666in" preserveAspectRatio="none" stroke-linecap="round" viewBox="0 0 1064 644" width="14.770833333333334in">
<style type="text/css">
.brush0 { fill: rgb(255,255,255); }
.pen0 { stroke: rgb(0,0,0); stroke-width: 1; stroke-linejoin: round; }
.font0 { font-size: 11px; font-family: "MS Sans Serif"; }
.pen1 { stroke: rgb(0,0,0); stroke-width: 14; stroke-linejoin: round; }
.brush1 { fill: none; }
.font1 { font-weight: bold; font-size: 16px; font-family: System, sans-serif; }
</style>
<g>
<path class="pen1" d="M 274.99903481845126,385.9961051938461 A 127.5,127.5 0 1 0 20.000980380849143,385.9999961553692" fill="none"/>
<line class="pen1" fill="none" x1="20" x2="148" y1="514" y2="386"/>
<line class="pen1" fill="none" x1="148" x2="276" y1="386" y2="514"/>
<line class="pen1" fill="none" x1="276" x2="20" y1="514" y2="514"/>
<circle class="pen1" cx="371.5" cy="449.5" fill="none" r="31.5"/>
<line class="pen1" fill="none" x1="372" x2="372" y1="322" y2="386"/>
<line class="pen1" fill="none" x1="468" x2="724" y1="514" y2="514"/>
<line class="pen1" fill="none" x1="532" x2="596" y1="450" y2="514"/>
<line class="pen1" fill="none" x1="596" x2="660" y1="514" y2="450"/>
<circle class="pen1" cx="851.5" cy="449.5" fill="none" r="63.5"/>
<line class="pen1" fill="none" x1="897" x2="806" y1="404" y2="495"/>
<line class="pen1" fill="none" x1="806" x2="897" y1="404" y2="495"/>
<line class="pen1" fill="none" x1="788" x2="1044" y1="386" y2="386"/>
<circle class="pen1" cx="979.5" cy="449.5" fill="none" r="63.5"/>
<line class="pen1" fill="none" x1="1025" x2="934" y1="404" y2="495"/>
<line class="pen1" fill="none" x1="934" x2="1025" y1="404" y2="495"/>
</g>
</svg>
