<?xml version="1.0" encoding="UTF-8" standalone="no"?>
<!DOCTYPE svg PUBLIC "-//W3C//DTD SVG 1.0//EN" "http://www.w3.org/TR/2001/REC-SVG-20010904/DTD/svg10.dtd">
<svg xmlns="http://www.w3.org/2000/svg" xmlns:xlink="http://www.w3.org/1999/xlink" fill-rule="evenodd" height="8.947916666666666in" preserveAspectRatio="none" stroke-linecap="round" viewBox="0 0 936 644" width="12.989583333333334in">
<style type="text/css">
.brush0 { fill: rgb(255,255,255); }
.pen0 { stroke: rgb(0,0,0); stroke-width: 1; stroke-linejoin: round; }
.font0 { font-size: 11px; font-family: "MS Sans Serif"; }
.pen1 { stroke: rgb(0,0,0); stroke-width: 14; stroke-linejoin: round; }
.brush1 { fill: none; }
.font1 { font-weight: bold; font-size: 16px; font-family: System, sans-serif; }
</style>
<g>
<circle class="pen1" cx="83.5" cy="449.5" fill="none" r="63.5"/>
<line class="pen1" fill="none" x1="129" x2="38" y1="404" y2="495"/>
<line class="pen1" fill="none" x1="38" x2="129" y1="404" y2="495"/>
<line class="pen1" fill="none" x1="20" x2="276" y1="386" y2="386"/>
<circle class="pen1" cx="211.5" cy="449.5" fill="none" r="63.5"/>
<line class="pen1" fill="none" x1="257" x2="166" y1="404" y2="495"/>
<line class="pen1" fill="none" x1="166" x2="257" y1="404" y2="495"/>
<circle class="pen1" cx="339.5" cy="449.5" fill="none" r="63.5"/>
<line class="pen1" fill="none" x1="385" x2="294" y1="404" y2="495"/>
<line class="pen1" fill="none" x1="294" x2="385" y1="404" y2="495"/>
<line class="pen1" fill="none" x1="276" x2="404" y1="386" y2="386"/>
<line class="pen1" fill="none" x1="372" x2="308" y1="290" y2="354"/>
<line class="pen1" fill="none" x1="340" x2="404" y1="322" y2="386"/>
<line class="pen1" fill="none" x1="532" x2="532" y1="386" y2="514"/>
<line class="pen1" fill="none" x1="468" x2="596" y1="514" y2="514"/>
<line class="pen1" fill="none" x1="468" x2="596" y1="386" y2="386"/>
<path class="pen1" d="M 660.0009803808491,385.9999961553692 A 127.5,127.5 0 0 0 914.9990348184513,385.9961051938461" fill="none"/>
<line class="pen1" fill="none" x1="724" x2="852" y1="322" y2="322"/>
<line class="pen1" fill="none" x1="852" x2="852" y1="322" y2="450"/>
<line class="pen1" fill="none" x1="852" x2="724" y1="450" y2="450"/>
<line class="pen1" fill="none" x1="724" x2="724" y1="450" y2="322"/>
</g>
</svg>
