<?xml version="1.0" encoding="UTF-8" standalone="no"?>
<!DOCTYPE svg PUBLIC "-//W3C//DTD SVG 1.0//EN" "http://www.w3.org/TR/2001/REC-SVG-20010904/DTD/svg10.dtd">
<svg xmlns="http://www.w3.org/2000/svg" xmlns:xlink="http://www.w3.org/1999/xlink" fill-rule="evenodd" height="8.947916666666666in" preserveAspectRatio="none" stroke-linecap="round" viewBox="0 0 1128 644" width="15.65625in">
<style type="text/css">
.brush0 { fill: rgb(255,255,255); }
.pen0 { stroke: rgb(0,0,0); stroke-width: 1; stroke-linejoin: round; }
.font0 { font-size: 11px; font-family: "MS Sans Serif"; }
.pen1 { stroke: rgb(0,0,0); stroke-width: 14; stroke-linejoin: round; }
.brush1 { fill: none; }
.font1 { font-weight: bold; font-size: 16px; font-family: System, sans-serif; }
</style>
<g>
<circle class="pen1" cx="147.5" cy="385.5" fill="none" r="127.5"/>
<circle class="pen1" cx="147.5" cy="449.5" fill="none" r="63.5"/>
<line class="pen1" fill="none" x1="193" x2="102" y1="404" y2="495"/>
<line class="pen1" fill="none" x1="102" x2="193" y1="404" y2="495"/>
<circle class="pen1" cx="403.5" cy="321.5" fill="none" r="63.5"/>
<circle class="pen1" cx="403.5" cy="449.5" fill="none" r="63.5"/>
<line class="pen1" fill="none" x1="404" x2="404" y1="258" y2="514"/>
<line class="pen1" fill="none" x1="532" x2="788" y1="514" y2="514"/>
<line class="pen1" fill="none" x1="596" x2="660" y1="450" y2="514"/>
<line class="pen1" fill="none" x1="660" x2="724" y1="514" y2="450"/>
<circle class="pen1" cx="915.5" cy="449.5" fill="none" r="63.5"/>
<line class="pen1" fill="none" x1="961" x2="870" y1="404" y2="495"/>
<line class="pen1" fill="none" x1="870" x2="961" y1="404" y2="495"/>
<line class="pen1" fill="none" x1="852" x2="1108" y1="386" y2="386"/>
<circle class="pen1" cx="1043.5" cy="449.5" fill="none" r="63.5"/>
<line class="pen1" fill="none" x1="1089" x2="998" y1="404" y2="495"/>
<line class="pen1" fill="none" x1="998" x2="1089" y1="404" y2="495"/>
</g>
</svg>
